<?xml version="1.0" encoding="UTF-8" standalone="no"?>
<svg viewBox="0 0 200 200" xmlns="http://www.w3.org/2000/svg">
  <path fill="#4f46e5" fill-opacity="0.1" d="M47.4,-62.5C58.8,-54,63.8,-36.7,66.8,-20.2C69.8,-3.7,70.9,12.1,65.4,25.1C59.9,38.2,47.9,48.6,34.9,53.8C21.9,59,7.9,59.1,-5.2,56.7C-18.3,54.4,-30.4,49.5,-38.6,41.1C-46.8,32.6,-51.1,20.5,-53.4,7.9C-55.7,-4.8,-56.1,-18,-50.8,-28.6C-45.5,-39.2,-34.5,-47.2,-22.9,-55.5C-11.2,-63.8,1.1,-72.5,13.7,-74.2C26.4,-75.9,36,-71,47.4,-62.5Z" transform="translate(100 100)" />
</svg>