<?xml version="1.0" encoding="UTF-8" standalone="no"?>
<svg width="400" height="400" viewBox="0 0 400 400" fill="none" xmlns="http://www.w3.org/2000/svg">
  <rect width="400" height="400" fill="white"/>
  <path fill-rule="evenodd" clip-rule="evenodd" d="M50 50H100V100H50V50ZM150 50H200V100H150V50ZM300 50H250V100H300V50ZM350 100H400V50H350V100ZM50 150H100V200H50V150ZM200 150H150V200H200V150ZM250 150H300V200H250V150ZM400 150H350V200H400V150ZM100 250H50V300H100V250ZM150 300H200V250H150V300ZM300 250H250V300H300V250ZM350 300H400V250H350V300ZM50 350H100V400H50V350ZM200 350H150V400H200V350ZM250 350H300V400H250V350ZM400 350H350V400H400V350Z" fill="#4f46e5" fill-opacity="0.1"/>
</svg>