<?xml version="1.0" encoding="UTF-8" standalone="no"?>
<svg width="1440" height="320" viewBox="0 0 1440 320" fill="none" xmlns="http://www.w3.org/2000/svg">
    <path fill-rule="evenodd" clip-rule="evenodd" d="M0 192L48 202.7C96 213 192 235 288 224C384 213 480 171 576 160C672 149 768 171 864 186.7C960 203 1056 213 1152 213.3C1248 213 1344 203 1392 197.3L1440 192V320H1392C1344 320 1248 320 1152 320C1056 320 960 320 864 320C768 320 672 320 576 320C480 320 384 320 288 320C192 320 96 320 48 320H0V192Z" fill="#4f46e5" fill-opacity="0.1"/>
    <path fill-rule="evenodd" clip-rule="evenodd" d="M0 224L48 213.3C96 203 192 181 288 176C384 171 480 181 576 208C672 235 768 277 864 266.7C960 256 1056 192 1152 176C1248 160 1344 192 1392 208L1440 224V320H1392C1344 320 1248 320 1152 320C1056 320 960 320 864 320C768 320 672 320 576 320C480 320 384 320 288 320C192 320 96 320 48 320H0V224Z" fill="#10b981" fill-opacity="0.1"/>
</svg>