<?xml version="1.0" encoding="UTF-8"?>
<svg width="800px" height="800px" viewBox="0 0 24 24" version="1.1" xmlns="http://www.w3.org/2000/svg" xmlns:xlink="http://www.w3.org/1999/xlink">
    <title>GitHub</title>
    <g id="GitHub" stroke="none" stroke-width="1" fill="none" fill-rule="evenodd">
        <path d="M12,2 C6.47714844,2 2,6.47714844 2,12 C2,16.4191406 4.86679688,20.1669922 8.83789062,21.488281 C9.33789062,21.5732422 9.52148438,21.2724609 9.52148438,21.0068359 C9.52148438,20.767578 9.51367188,20.1425781 9.50976562,19.3095703 C6.72656251,19.9095703 6.13867188,17.9697266 6.13867188,17.9697266 C5.68554687,16.8115234 5.02929688,16.5117188 5.02929688,16.5117188 C4.121094,15.8984375 5.09765626,15.9101563 5.09765626,15.9101563 C6.10156251,15.9755859 6.62695313,16.9169922 6.62695313,16.9169922 C7.52148438,18.4453125 8.97070313,18.0175781 9.53906251,17.7607422 C9.63085938,17.112305 9.88867188,16.6845703 10.1718751,16.4199219 C7.95312501,16.1523438 5.61914063,15.3017578 5.61914063,11.477539 C5.61914063,10.3867188 6.00976564,9.49218751 6.64843751,8.79882813 C6.54492188,8.54296876 6.20312501,7.52343751 6.74609376,6.14648438 C6.74609376,6.14648438 7.58593751,5.87890626 9.49804688,7.17187501 C10.2949219,6.94921876 11.1484375,6.83789063 11.9980469,6.83398438 C12.8457031,6.83789063 13.6992188,6.94921876 14.4980469,7.17187501 C16.4082031,5.87890626 17.2460938,6.14648438 17.2460938,6.14648438 C17.7910156,7.52343751 17.4492188,8.54296876 17.3457031,8.79882813 C17.9863281,9.49218751 18.3730469,10.3867188 18.3730469,11.477539 C18.3730469,15.3105469 16.0351562,16.1484375 13.8105469,16.4111328 C14.1582031,16.7353516 14.4667969,17.3701172 14.4667969,18.3476563 C14.4667969,19.7675781 14.4550781,20.6757813 14.4550781,21.0068359 C14.4550781,21.2753906 14.6347656,21.5791016 15.1425781,21.4863281 C19.1367187,20.1669922 22,16.4191406 22,12 C22,6.47714844 17.5228516,2 12,2" id="Path" fill="#333333" fill-rule="nonzero"></path>
    </g>
</svg>