<?xml version="1.0" encoding="UTF-8"?>
<svg width="800px" height="800px" viewBox="0 0 24 24" version="1.1" xmlns="http://www.w3.org/2000/svg" xmlns:xlink="http://www.w3.org/1999/xlink">
    <title>LinkedIn</title>
    <g id="LinkedIn" stroke="none" stroke-width="1" fill="none" fill-rule="evenodd">
        <path d="M19,3 C19.5522847,3 20,3.44771525 20,4 L20,20 C20,20.5522847 19.5522847,21 19,21 L5,21 C4.44771525,21 4,20.5522847 4,20 L4,4 C4,3.44771525 4.44771525,3 5,3 L19,3 Z" id="Rectangle" stroke="#0A66C2" stroke-width="2"></path>
        <rect id="Rectangle" fill="#0A66C2" x="8" y="10" width="2" height="7" rx="0.5"></rect>
        <circle id="Oval" fill="#0A66C2" cx="9" cy="8" r="1"></circle>
        <path d="M14,10 C15.3333333,9.33333333 16.6666667,9.33333333 18,10 L18,10 L18,16.5 C18,16.7761424 17.7761424,17 17.5,17 L17,17 C16.7238576,17 16.5,16.7761424 16.5,16.5 L16.5,12 C16.5,11.5 16,11 15,11 C14,11 13.5,11.5 13.5,12 L13.5,16.5 C13.5,16.7761424 13.2761424,17 13,17 L12.5,17 C12.2238576,17 12,16.7761424 12,16.5 L12,10.5 C12,10.2238576 12.2238576,10 12.5,10 L13,10 C13.2761424,10 13.5,10.2238576 13.5,10.5 L13.5,10.5 L14,10 Z" id="Path-2" fill="#0A66C2"></path>
    </g>
</svg>