<?xml version="1.0" encoding="UTF-8"?>
<svg width="800px" height="800px" viewBox="0 0 24 24" version="1.1" xmlns="http://www.w3.org/2000/svg" xmlns:xlink="http://www.w3.org/1999/xlink">
    <title>Twitter</title>
    <g id="Twitter" stroke="none" stroke-width="1" fill="none" fill-rule="evenodd">
        <path d="M22,5.89 C21.26,6.21 20.46,6.42 19.64,6.53 C20.49,6.03 21.14,5.24 21.44,4.3 C20.64,4.77 19.76,5.09 18.83,5.28 C18.09,4.49 17.02,4 15.85,4 C13.58,4 11.75,5.81 11.75,8.04 C11.75,8.36 11.78,8.67 11.84,8.97 C8.43,8.8 5.42,7.19 3.39,4.74 C3.04,5.34 2.83,6.03 2.83,6.77 C2.83,8.18 3.56,9.42 4.66,10.13 C3.99,10.12 3.36,9.93 2.81,9.64 L2.81,9.69 C2.81,11.64 4.22,13.27 6.09,13.65 C5.75,13.75 5.38,13.79 5.01,13.79 C4.74,13.79 4.49,13.77 4.24,13.73 C4.76,15.33 6.28,16.48 8.08,16.51 C6.67,17.59 4.9,18.23 2.98,18.23 C2.65,18.23 2.31,18.21 2,18.17 C3.82,19.34 5.97,20 8.29,20 C15.84,20 19.96,13.86 19.96,8.54 C19.96,8.37 19.95,8.19 19.94,8.02 C20.76,7.46 21.45,6.75 22,5.89 Z" id="Path" fill="#1DA1F2"></path>
    </g>
</svg>