<?xml version="1.0" encoding="UTF-8" standalone="no"?>
<svg xmlns="http://www.w3.org/2000/svg" viewBox="0 0 128 128">
  <path fill="#00599C" d="M117.5 33.5l.3-.2c-.6-1.1-1.5-2.1-2.4-2.6L67.1 2.9c-.8-.5-1.9-.7-3.1-.7-1.2 0-2.3.3-3.1.7l-48 27.9c-1.7 1-3.4 3.5-3.4 5.6v55.7c0 2.1 1.7 4.6 3.4 5.6l48.2 27.9c.8.5 1.9.7 3.1.7 1.2 0 2.3-.3 3.1-.7l48-27.9c1.7-1 3.4-3.5 3.4-5.6V36.1c.1-.8-.2-1.7-.5-2.6zM64 88.5c13.5 0 24.5-11 24.5-24.5s-11-24.5-24.5-24.5c-9.8 0-18.3 5.8-22.2 14.1l10.9 6.3c1.7-4.2 5.8-7.1 10.4-7.1 6.3 0 11.4 5.1 11.4 11.4 0 6.3-5.1 11.4-11.4 11.4-5.1 0-9.3-3.3-10.8-7.9l-11.1 6.5c3.9 8.9 12.6 14.3 22.3 14.3z"/>
  <path fill="#004482" d="M69 65.9h5.3v5.3H69zM79.5 65.9h5.3v5.3h-5.3zM69 55.9h5.3v5.3H69zM79.5 55.9h5.3v5.3h-5.3z"/>
</svg>