<?xml version="1.0" encoding="UTF-8" standalone="no"?>
<svg xmlns="http://www.w3.org/2000/svg" viewBox="0 0 128 128">
  <path fill="#00c4b3" d="M35.2 34.9l-8.3-8.3v59.7l.1 2.8c0 1.3.2 2 .5 2.7L64 127.3l10.4-6V92.1L35.2 34.9z"/>
  <path fill="#22d3c5" d="M27.7 91.9v-5.6l36.8 36.8-7.7 4.4-25.6-25.6c-1.9-1.8-3.1-3.8-3.5-5.9-.1-.4-.1-.9-.1-1.4l.1-2.7z"/>
  <path fill="#0075c9" d="M73.5 91.9l.8-.8 9.8-5.7 6.9-4-5.4-37.9L73.5 32.3v59.6z"/>
  <path fill="#00a8e1" d="M85.3 40.4l-11.8 51.5v-59.6l14.8-8.8-3 16.9z"/>
  <path fill="#00c4b3" d="M64.1 127.3L74.4 121l-38.6-38.5c-.3-.3-.5-1-.6-1.4-.1-.4-.1-.8-.1-1.1L64.1 127.3z"/>
  <path fill="#0075c9" d="M96.5 73.3l-.3.6-10.8 6.3-6.9 4 .2.2 5.6 5.6 12.2-5.1L128 69.1 96.5 73.3z"/>
  <path fill="#22d3c5" d="M84.3 90l-.8.8-9.9 5.5v30.9l.2.1 17.4-10.1c1.1-.7 2-1.6 2.5-2.8.4-.8.5-1.5.5-2.4v-16.2L84.3 90z"/>
  <path fill-opacity=".2" d="M88.2 96l-4 2.4v14.9h.1c0 .8-.2 1.4-.7 1.9-.4.4-.8.7-1.4.9l.1.1 17.4-10.1c1.1-.7 2-1.6 2.5-2.8.4-.8.5-1.5.5-2.4l-.1-4.9h.1L88.2 96z" fill="#263238"/>
  <path fill="#00a8e1" d="M92.7 15.5L74.6 0 45.4 11.4l-7.1 14.8 13.9 13.9h21.4L92.7 15.5z"/>
</svg>