<?xml version="1.0" encoding="UTF-8"?>
<svg xmlns="http://www.w3.org/2000/svg" viewBox="0 0 272.96 114.01">
  <path d="M163.59,38.806c-5.985,0-10.442,2.939-10.442,10.012,0,5.33,2.938,9.028,10.12,9.028,6.088,0,10.222-3.587,10.222-9.248C173.49,42.282,169.903,38.806,163.59,38.806z M163.59,65.357c-13.505,0-22.092-6.311-22.092-16.884,0-10.441,8.587-17.094,22.092-17.094,13.434,0,22.091,6.644,22.091,17.094C185.681,58.938,177.024,65.357,163.59,65.357z M212.639,39.881h-13.217v25.173c0,6.016,2.163,7.852,6.644,7.852c4.317,0,6.032-1.256,8.539-2.723l5.225,8.586c-3.919,2.835-9.357,4.536-14.691,4.536c-11.347,0-17.853-5.33-17.853-18.337V39.881h-8.251v-9.913h8.251V18.046h12.136v11.922h13.217V39.881z M91.354,38.24c-5.33,0-8.921,3.919-8.921,9.026c0,5.252,3.17,9.027,8.974,9.027c5.513,0,8.854-3.601,8.854-9.027C100.261,41.822,97.039,38.24,91.354,38.24z M71.784,56.452c0,13.397,10.367,18.918,21.716,18.918,4.795,0,10.328-1.146,15.402-4.649l-6.311-8.251c-2.165,1.621-5.547,2.815-8.322,2.815c-4.581,0-9.248-2.284-10.002-7.3h26.113c0.21-0.966,0.263-1.941,0.263-2.989C110.643,43.162,100.923,37.496,91.751,37.496C81.328,37.496,71.784,45.025,71.784,56.452z" fill="#362701"/>
  <path d="M127.164,88.628c-2.066-0.214-3.589-0.425-5.011-0.772c0.637-1.379,1.274-2.868,1.911-4.55c1.1,0.317,2.196,0.53,3.695,0.53h2.938c11.368,0,17.853-5.757,17.853-18.337V39.881h-12.136v25.173c0,6.016-2.163,7.852-6.644,7.852c-1.002,0-1.771-0.09-2.606-0.254V51.698c0-11.347-8.586-14.202-16.672-14.202c-5.118,0-10.329,1.146-14.583,5.012l5.119,8.251c2.607-2.607,5.99-3.919,9.159-3.919c4.729,0,6.975,2.163,6.975,6.643v3.17c-10.54,0-24.208,1.396-24.208,13.262c0,8.251,6.433,13.262,15.145,13.262c6.975,0,10.328-3.068,12.412-6.432c1.073,3.903,3.736,6.432,10.475,6.644L127.164,88.628z M102.579,66.728c0-5.118,7.086-5.437,12.412-5.437v4.428c0,4.428-3.06,8.251-8.059,8.251C104.317,73.97,102.579,71.168,102.579,66.728z" fill="#362701"/>
  <path d="M153.277,55.525c0-14.144,9.124-18.029,19.404-18.029c4.264,0,8.377,0.637,11.625,1.596l-1.809,9.911c-2.704-0.958-5.76-1.382-8.588-1.382c-5.118,0-9.248,1.487-9.248,7.182V88.13h-11.384V55.525z" fill="#362701"/>
  <path d="M44.59,57.297l-0.139-0.093L26.757,45.526v-0.125l17.692-11.67l0.047,0.03l0.081,0.05l17.693,11.668v0.125L44.59,57.297z" fill="#DE4C36"/>
  <path d="M44.59,57.297L26.758,45.401v0.125l17.693,11.678l17.693-11.678l-0.001-0.125L44.59,57.297z" fill="#DE4C36"/>
  <path d="M61.6,56.529h0.446v-22.95H44.639L26.758,45.401v11.128h17.448v15.906c0,0.755,0.144,1.484,0.414,2.128c0.486,1.168,1.42,2.082,2.589,2.539c0.769,0.299,1.604,0.424,2.49,0.358l11.568-0.009l0.332-11.821l-6.096-0.008c-0.271-0.026-0.536-0.102-0.781-0.227c-0.403-0.207-0.71-0.586-0.825-1.022c-0.048-0.191-0.074-0.394-0.074-0.602L53.823,56.53h7.319L61.6,56.529z" fill="#EF4E32"/>
  <path d="M62.047,56.529v-22.95H44.639v22.95H62.047z" fill="#DE4C36"/>
  <path d="M26.758,56.529h17.448v-22.95H26.758V56.529z" fill="#DE4C36"/>
  <path d="M42.981,77.429c0.487,1.169,1.42,2.083,2.589,2.539c0.769,0.299,1.604,0.425,2.49,0.358l11.568-0.009l0.332-11.821l-6.096-0.008c-0.271-0.026-0.536-0.102-0.781-0.227c-0.403-0.207-0.71-0.586-0.825-1.022c-0.048-0.191-0.074-0.394-0.074-0.602v-10.11H26.758v11.128l15.808,7.646C42.567,76.055,42.711,76.785,42.981,77.429z" fill="#DE4C36"/>
</svg>