<?xml version="1.0" encoding="UTF-8"?>
<svg viewBox="0 0 32 32" xmlns="http://www.w3.org/2000/svg">
  <path d="M15.9.087l.854 1.604c.192.296.4.558.645.802.715.715 1.394 1.464 2.004 2.266 1.447 1.9 2.423 4.01 3.12 6.292.418 1.394.645 2.824.662 4.27.07 4.323-1.412 8.035-4.4 11.12-.488.488-1.01.94-1.57 1.342-.296 0-.436-.227-.558-.436-.227-.383-.366-.802-.436-1.222-.105-.558-.122-1.133-.105-1.7.017-.296.052-.61.105-.906.17-.802.296-1.604.418-2.405.105-.558.21-1.116.157-1.7-.052-.488-.26-.906-.645-1.287-.054-.052-.07-.105-.107-.157h-.017c-.192.232-.436.465-.588.742-.227.383-.366.819-.418 1.27-.105.932-.105 1.865-.14 2.797-.017.47.105.94-.052 1.394-.227.558-.558 1.01-.985 1.358-.192.157-.35.174-.54.053-.227-.174-.35-.436-.487-.671-.628-1.202-.743-2.488-.627-3.8.105-1.222.288-2.428.663-3.603.153-.506.329-.994.554-1.47.19-.419.54-.767.54-1.255h-.278c-.7.035-.14.07-.227.105-.768.383-1.464.85-2.057 1.464-.976 1.046-1.81 2.213-2.423 3.52-.227.47-.436.94-.558 1.43-.437 1.8-.47 3.588-.07 5.39.09.384.228.767.367 1.15.09.227.122.47.157.714.035.227.017.47-.052.68-.14.383-.472.523-.802.296-.227-.174-.437-.384-.6-.62-.697-.905-1.152-1.952-1.393-3.087-.21-.905-.26-1.83-.26-2.753.017-.542.053-1.084.166-1.616.08-.384.166-.767.276-1.15.383-1.358.976-2.615 1.748-3.78.184-.297.393-.575.618-.843.174-.21.331-.427.471-.661.087-.174.139-.383.209-.575.017-.07 0-.14-.07-.157l-.7.035c-.174.07-.331.14-.489.226-.944.54-1.75 1.22-2.475 2.04-1.538 1.708-2.615 3.68-3.183 5.95-.21.767-.33 1.552-.374 2.352 0 .21-.017.419-.034.628v.288c-.052.523-.035 1.046-.018 1.57.07 1.01.226 2.022.557 2.997.384 1.184.976 2.232 1.69 3.21.106.14.227.279.333.419.53.035.87.087.157.122.314.21.68.121.784-.26.07-.21.07-.419.07-.645v-.313c0-.244.017-.47.052-.714.07-.523.175-1.046.332-1.552.488-1.518 1.203-2.894 2.179-4.13.732-.94 1.535-1.762 2.546-2.336.21-.122.419-.226.645-.314.07-.017.122-.07.122-.157l-.017-.035c-.175-.453-.35-.889-.68-1.29-.226-.28-.47-.558-.766-.767-.157-.104-.314-.21-.453-.331-.245-.227-.384-.489-.384-.82-.034-.767-.157-1.517-.296-2.283-.035-.192-.07-.419-.07-.61 0-.175.053-.35.088-.506l.017-.053c.017-.087-.017-.157-.087-.192l-.106-.087c-.105-.07-.192-.157-.297-.227-.21-.174-.436-.314-.662-.454z" fill="#599636"/>
</svg>