<?xml version="1.0" encoding="UTF-8"?>
<svg xmlns="http://www.w3.org/2000/svg" viewBox="0 0 5.82 5.82">
  <title>MySQL Logo</title>
  <g>
    <rect width="5.82" height="5.82" fill="#fff"/>
    <path d="M1.2,4.68c-.07,0-.12,0-.17,0l0-.06a2.52,2.52,0,0,0,.4-.08,1,1,0,0,0,.23-.23.33.33,0,0,0,0-.18.48.48,0,0,0-.33-.42.45.45,0,0,0-.47.13V3.72a.46.46,0,0,0,0-.2A.51.51,0,0,0,.5,3.34c-.15,0-.18.07-.3.15l0,0,0,0L.18,3.32.22,3.3a.61.61,0,0,1,.32-.07A.54.54,0,0,1,.91,3.4a.55.55,0,0,1,0,.25v.11a.82.82,0,0,1,.19-.13.63.63,0,0,1,.28,0,.53.53,0,0,1,.4.5.39.39,0,0,1-.7.2,1.3,1.3,0,0,1-.3.29A2.1,2.1,0,0,1,1.2,4.68Zm.89,0h-.1l0-.06A.69.69,0,0,0,2.2,4a.47.47,0,0,0,0-.51.5.5,0,0,0-.49-.14h0L1.57,3.3l0,0V3.24l.14,0a.71.71,0,0,1,.5.12A.51.51,0,0,1,2.31,4c0,.18-.12.52-.17.62Zm1.31,0H3.29c0-.13-.05-.42-.07-.49s-.13-.34-.24-.51a1.1,1.1,0,0,0-.37-.33,1.83,1.83,0,0,0-.43-.15,2.44,2.44,0,0,0-.47,0,2.42,2.42,0,0,0-.57.06,2.84,2.84,0,0,0-.47.15l0,0h.25a2.38,2.38,0,0,1,.73-.1,2.78,2.78,0,0,1,.5,0A1.81,1.81,0,0,1,2.58,3a1.16,1.16,0,0,1,.32.23A1.59,1.59,0,0,1,3.25,4,2.5,2.5,0,0,1,3.4,4.6Zm.33,0H3.62v-2H4l0,0h0v2Zm.27,0H3.94V3.1H4l.06,0,0,0V3l0,0v.06H4v.13h.15v1.4Zm.37,0H5V3.23a.71.71,0,0,0-.11,0,.25.25,0,0,0-.19.11.3.3,0,0,0-.1.21.34.34,0,0,0,.18.3.79.79,0,0,0,.3.06H5v-.7h0v.76H4.82a.92.92,0,0,1-.39-.08A.41.41,0,0,1,4.2,3.5a.36.36,0,0,1,.12-.26A.43.43,0,0,1,4.59,3.15a.68.68,0,0,1,.24,0h.24v1.4ZM4.14,3.69v0a.24.24,0,0,0,.16-.23.23.23,0,0,0-.16-.23v0a.23.23,0,0,0,.23.23A.24.24,0,0,0,4.14,3.69Zm.29-1.23v0a.09.09,0,0,0,.06-.9.08.08,0,0,0-.06-.09v0a.09.09,0,0,0,.09.09A.09.09,0,0,0,4.43,2.46Z" fill="#00758f"/>
    <path d="M4.43,1.11c.12,0,.19,0,.27,0a.65.65,0,0,0,.26-.05A1.08,1.08,0,0,0,5.27.68.9.9,0,0,0,5.4.24a.36.36,0,0,0,0-.16l0,0L5.36,0h0l0,0,.06.15A.35.35,0,0,1,5.4.3.88.88,0,0,1,5.29.7,1.08,1.08,0,0,1,5,.93a.8.8,0,0,1-.28.06l-.27,0-.5,0,0,0h0l.5,0Z" fill="#f29111"/>
    <path d="M.11,1.11l.27,0a.88.88,0,0,0,.32,0A.75.75,0,0,0,1,.84L1,1a.85.85,0,0,0,.15.43c.07.08.15.17.15.17l0,0L1.1,1.4A.76.76,0,0,1,1,1.09.58.58,0,0,1,1,1L1,.82A.74.74,0,0,1,.77.63L.71.58A.71.71,0,0,1,.36.1H.33L.11,0l0,0H.06L.28.12H.32A.71.71,0,0,0,.56.49L.61.53A.72.72,0,0,0,.82.71l0,.09a.54.54,0,0,0-.05.16.79.79,0,0,0,.09.31l0,.05,0,0h0s-.07-.08-.15-.16A.85.85,0,0,1,.62.71a.92.92,0,0,1-.24.09,1,1,0,0,1-.33,0H.05l0,0H0l.12,0Z" fill="#f29111"/>
    <path d="M3.18,1.11l.3,0a.7.7,0,0,0,.33-.11.3.3,0,0,0,.13-.2.29.29,0,0,0-.09-.23.69.69,0,0,0-.31-.15l-.32,0-.32,0L2.67.28a.67.67,0,0,1-.35-.19A.38.38,0,0,1,2.37,0a.29.29,0,0,1,.16,0L2.26,0H2.24L2.5.06a.32.32,0,0,0-.18,0,.4.4,0,0,0-.05.25.67.67,0,0,0,.37.18l.32,0,.32,0a.58.58,0,0,1,.31.17.27.27,0,0,1,.07.22.29.29,0,0,1-.14.18.67.67,0,0,1-.33.09l-.3,0-.49,0,0,0h0l.48,0Z" fill="#f29111"/>
    <path d="M1.64,1.11l.31,0a.71.71,0,0,0,.31-.09.31.31,0,0,0,.13-.21.28.28,0,0,0-.13-.25.6.6,0,0,0-.25-.1l-.14,0h-.1l.1,0a.46.46,0,0,1,.16,0,.24.24,0,0,1,.13.22.19.19,0,0,1-.09.14.67.67,0,0,1-.28.09H1.75l.09,0a.54.54,0,0,0,.26-.06.35.35,0,0,0,.16-.27.35.35,0,0,0-.17-.28.58.58,0,0,0-.28-.08h-.3A.57.57,0,0,0,1.2.36a.38.38,0,0,0-.17.28.24.24,0,0,0,.1.18.44.44,0,0,0,.24.07H1.5v0H1.36A.45.45,0,0,1,1.06.8.25.25,0,0,1,1,.58.39.39,0,0,1,1.15.27.58.58,0,0,1,1.51.16h.31a.6.6,0,0,1,.32.09A.37.37,0,0,1,2.33.53.37.37,0,0,1,2.14.87a.81.81,0,0,1-.28.06l-.24,0-.52,0,0,0h0l.52,0Z" fill="#f29111"/>
  </g>
</svg>