<?xml version="1.0" encoding="UTF-8"?>
<svg xmlns="http://www.w3.org/2000/svg" viewBox="0 0 440 270">
  <path fill="#83CD29" d="M218.647 270.93c-1.468 0-2.928-.37-4.228-1.114l-13.106-7.786c-2.002-1.132-1.02-1.53-.408-1.76 2.67-.932 3.205-1.143 6.04-2.764.3-.17.692-.105.995.07l10.08 5.976c.37.2.9.2 1.248 0l39.256-22.62c.37-.215.61-.64.61-1.08v-45.246c0-.46-.24-.872-.618-1.1l-39.26-22.614c-.37-.205-.876-.205-1.247 0l-39.252 22.614c-.387.227-.633.64-.633 1.09v45.244c0 .44.24.86.62 1.07l10.752 6.222c5.93 2.97 9.574-.528 9.574-4.05v-44.673c0-.645.51-1.15 1.153-1.15h5.004c.63 0 1.15.51 1.15 1.152v44.67c0 7.92-4.326 12.466-11.856 12.466-2.316 0-4.144 0-9.24-2.518l-10.314-5.954c-2.548-1.467-4.125-4.208-4.125-7.15V184.3c0-2.944 1.582-5.698 4.125-7.157l39.238-22.677c2.485-1.4 5.796-1.4 8.258 0l39.26 22.677c2.537 1.46 4.127 4.213 4.127 7.157v45.245c0 2.942-1.59 5.684-4.128 7.15l-39.26 22.677c-1.308.75-2.782 1.118-4.254 1.118l.05-.01z"/>
  <path fill="#83CD29" d="M228.987 210.437c-17.184 0-20.782-7.896-20.782-14.504 0-.638.51-1.148 1.148-1.148h5.106c.57 0 1.045.413 1.14.978.775 5.248 3.098 7.886 13.395 7.886 8.252 0 11.764-1.866 11.764-6.236 0-2.523-1-4.387-13.8-5.64-10.7-1.06-17.304-3.44-17.304-12.07 0-7.97 6.74-12.728 18.036-12.728 12.755 0 19.025 4.39 19.842 13.88.026.3-.08.608-.3.838-.208.23-.492.376-.797.392l-5.128.308c-.54.035-1.01-.34-1.125-.886-.992-4.41-3.48-5.806-12.482-5.806-9.193 0-10.27 3.2-10.27 5.6 0 2.905 1.273 3.76 13.362 5.388 12.006 1.624 17.733 3.92 17.733 12.26 0 8.596-7.156 13.383-19.66 13.383h-.004l.042-.03z"/>
</svg>