<?xml version="1.0" encoding="UTF-8" standalone="no"?>
<svg xmlns="http://www.w3.org/2000/svg" viewBox="0 0 128 128">
  <defs>
    <linearGradient id="r-gradient" x1="0.5" y1="0" x2="0.5" y2="1">
      <stop offset="0%" stop-color="#276DC3"/>
      <stop offset="100%" stop-color="#165CAA"/>
    </linearGradient>
  </defs>
  <path fill="url(#r-gradient)" d="M64 7.83H34.57v81.95H64c22.5 0 40.72-18.32 40.72-40.97S86.5 7.83 64 7.83z"/>
  <path fill="#ffffff" d="M53.74 59.67c0-1.84-.93-3.8-2.64-3.8H45.8v7.63h5.3c1.7 0 2.63-1.96 2.63-3.8zm1.05-23.5c0-1.73-.95-3.12-2.63-3.12h-6.36v6.25h6.36c1.68 0 2.63-1.4 2.63-3.13zm1.36 42.92L42.3 65.34h-2.64v13.76h-6.7V28.54h14.5c6.7 0 11.66 4.6 11.66 10.8 0 4.36-2.48 7.96-6.14 9.48l14.85 30.27h-7.68z"/>
  <path fill="#276DC3" d="M64 100c-3.4 0-6.16 2.8-6.16 6.25s2.77 6.25 6.16 6.25c3.4 0 6.17-2.8 6.17-6.25S67.4 100 64 100z"/>
</svg>